<?xml version="1.0" standalone="no"?>
<!DOCTYPE svg PUBLIC "-//W3C//DTD SVG 20010904//EN"
 "http://www.w3.org/TR/2001/REC-SVG-20010904/DTD/svg10.dtd">
<svg version="1.0" xmlns="http://www.w3.org/2000/svg"
 width="260.000000pt" height="260.000000pt" viewBox="0 0 260.000000 260.000000"
 preserveAspectRatio="xMidYMid meet">
<metadata>
Created by potrace 1.11, written by Peter Selinger 2001-2013
</metadata>
<g transform="translate(0.000000,260.000000) scale(0.100000,-0.100000)"
fill="#000000" stroke="none">
<path d="M0 1300 l0 -1300 1300 0 1300 0 0 1300 0 1300 -1300 0 -1300 0 0
-1300z m1580 229 c0 -48 -3 -61 -17 -65 -10 -3 -30 -10 -45 -16 l-26 -10 26
-56 c28 -60 37 -171 17 -191 -15 -15 -203 -35 -248 -27 -21 4 -47 16 -58 27
-16 16 -20 17 -25 5 -3 -8 -19 -20 -35 -26 -24 -10 -33 -10 -54 4 -14 9 -25
21 -25 27 0 6 -11 1 -25 -10 -41 -32 -80 -36 -126 -13 l-41 21 -39 -21 c-46
-24 -91 -19 -124 12 -21 19 -21 19 -65 -3 -40 -20 -60 -22 -185 -22 -77 0
-147 3 -156 7 -15 6 -15 14 -5 70 11 58 13 63 36 60 14 -1 77 -3 140 -4 130
-2 163 7 188 52 22 39 65 39 70 0 5 -35 20 -50 51 -50 33 0 70 25 81 56 6 16
17 24 33 24 19 0 26 -8 36 -41 11 -37 15 -40 44 -37 26 2 36 10 50 40 16 32
21 35 45 29 20 -5 28 -15 32 -37 7 -41 47 -47 55 -7 12 52 14 54 42 51 23 -2
29 -9 31 -33 2 -16 9 -33 15 -37 20 -13 157 -9 157 4 0 6 -18 28 -40 50 -40
37 -41 40 -38 95 l3 57 105 42 c58 23 108 39 113 37 4 -2 7 -31 7 -64z m760 1
l0 -58 -37 -12 c-21 -7 -41 -16 -46 -19 -4 -4 4 -33 18 -63 30 -66 36 -161 12
-185 -23 -23 -212 -39 -289 -25 -34 6 -65 17 -70 24 -4 7 -9 79 -10 161 -1 81
-2 162 -2 180 l-1 32 58 3 57 3 0 -136 0 -135 80 0 c44 0 80 4 80 8 0 4 -18
26 -40 47 -40 39 -41 42 -38 99 l3 60 105 42 c58 23 108 40 113 37 4 -2 7 -31
7 -63z m-1838 -87 c17 -15 19 -15 36 0 10 10 25 17 32 17 19 0 50 -30 50 -49
0 -9 -9 -27 -20 -41 l-19 -25 -31 23 -31 23 -18 -22 c-18 -22 -19 -23 -45 -5
-36 23 -41 41 -22 71 19 29 42 32 68 8z m1331 -139 c43 -15 46 -18 41 -42 -21
-97 -94 -282 -111 -282 -10 0 -50 26 -79 52 l-21 19 37 72 c21 40 48 100 60
135 13 34 24 62 25 62 1 0 22 -7 48 -16z"/>
</g>
</svg>
